<svg width="768" height="400" viewBox="0 0 768 400" fill="none" xmlns="http://www.w3.org/2000/svg">
<g clip-path="url(#clip0_100501_3437)">
<rect width="768" height="400" fill="#D2D5DD"/>
<path d="M471.416 86C431.422 86 399 96.2609 399 108.918C399 121.576 431.422 131.837 471.416 131.837C493.83 131.837 512 127.493 512 122.135C512 116.777 493.83 112.433 471.416 112.433C431.422 112.433 399 122.694 399 135.352C399 148.009 431.422 158.271 471.416 158.271C493.83 158.271 512 153.927 512 148.569C512 143.21 493.83 138.867 471.416 138.867C431.422 138.867 399 149.191 399 161.926C399 174.661 431.422 184.985 471.416 184.985C493.83 184.985 512 180.641 512 175.283C512 169.925 493.83 165.582 471.416 165.582C431.422 165.582 399 175.842 399 188.5C399 201.158 431.422 211.418 471.416 211.418C493.83 211.418 512 207.075 512 201.717C512 196.359 493.83 192.015 471.416 192.015C431.422 192.015 399 202.276 399 214.934C399 227.591 431.422 237.852 471.416 237.852C493.83 237.852 512 233.508 512 228.151C512 222.792 493.83 218.449 471.416 218.449C431.422 218.449 399 228.71 399 241.367C399 254.024 431.422 264.285 471.416 264.285C493.83 264.285 512 259.942 512 254.583C512 249.226 493.83 244.882 471.416 244.882C431.422 244.882 399 255.206 399 267.941C399 280.676 431.422 291 471.416 291M471.416 245C431.422 245 399 255.261 399 267.918C399 280.576 431.422 290.837 471.416 290.837C493.83 290.837 512 286.493 512 281.135C512 275.777 493.83 271.433 471.416 271.433C431.422 271.433 399 281.694 399 294.352C399 307.009 431.422 317.271 471.416 317.271C493.83 317.271 512 312.927 512 307.569C512 302.211 493.83 297.867 471.416 297.867C431.422 297.867 399 308.191 399 320.926C399 333.661 431.422 343.985 471.416 343.985C493.83 343.985 512 339.641 512 334.283C512 328.925 493.83 324.582 471.416 324.582C431.422 324.582 399 334.842 399 347.5C399 360.158 431.422 370.418 471.416 370.418C493.83 370.418 512 366.075 512 360.717C512 355.359 493.83 351.015 471.416 351.015C431.422 351.015 399 361.276 399 373.934C399 386.591 431.422 396.852 471.416 396.852C493.83 396.852 512 392.508 512 387.151C512 381.792 493.83 377.449 471.416 377.449C431.422 377.449 399 387.71 399 400.367C399 413.024 431.422 423.285 471.416 423.285C493.83 423.285 512 418.942 512 413.583C512 408.226 493.83 403.882 471.416 403.882C431.422 403.882 399 414.206 399 426.941C399 439.676 431.422 450 471.416 450" stroke="#A1A6B4" stroke-linecap="round"/>
<path d="M613.775 -50C574.135 -50 542 -39.7391 542 -27.0816C542 -14.4242 574.135 -4.16321 613.775 -4.16321C635.991 -4.16321 654 -8.50679 654 -13.8649C654 -19.223 635.991 -23.5665 613.775 -23.5665C574.135 -23.5665 542 -13.3056 542 -0.648186C542 12.0094 574.135 22.2706 613.775 22.2706C635.991 22.2706 654 17.9268 654 12.5686C654 7.21049 635.991 2.86692 613.775 2.86692C574.135 2.86692 542 13.1908 542 25.9259C542 38.6609 574.135 48.9851 613.775 48.9851C635.991 48.9851 654 44.6414 654 39.2831C654 33.9249 635.991 29.582 613.775 29.582C574.135 29.582 542 39.8425 542 52.5C542 65.1575 574.135 75.418 613.775 75.418C635.991 75.418 654 71.0751 654 65.7169C654 60.3586 635.991 56.0149 613.775 56.0149C574.135 56.0149 542 66.2762 542 78.9337C542 91.5912 574.135 101.852 613.775 101.852C635.991 101.852 654 97.508 654 92.1506C654 86.7923 635.991 82.4485 613.775 82.4485C574.135 82.4485 542 92.7099 542 105.367C542 118.024 574.135 128.285 613.775 128.285C635.991 128.285 654 123.942 654 118.583C654 113.226 635.991 108.882 613.775 108.882C574.135 108.882 542 119.206 542 131.941C542 144.676 574.135 155 613.775 155M613.775 109C574.135 109 542 119.261 542 131.918C542 144.576 574.135 154.837 613.775 154.837C635.991 154.837 654 150.493 654 145.135C654 139.777 635.991 135.433 613.775 135.433C574.135 135.433 542 145.694 542 158.352C542 171.009 574.135 181.271 613.775 181.271C635.991 181.271 654 176.927 654 171.569C654 166.211 635.991 161.867 613.775 161.867C574.135 161.867 542 172.191 542 184.926C542 197.661 574.135 207.985 613.775 207.985C635.991 207.985 654 203.641 654 198.283C654 192.925 635.991 188.582 613.775 188.582C574.135 188.582 542 198.842 542 211.5C542 224.158 574.135 234.418 613.775 234.418C635.991 234.418 654 230.075 654 224.717C654 219.359 635.991 215.015 613.775 215.015C574.135 215.015 542 225.276 542 237.934C542 250.591 574.135 260.852 613.775 260.852C635.991 260.852 654 256.508 654 251.151C654 245.792 635.991 241.449 613.775 241.449C574.135 241.449 542 251.71 542 264.367C542 277.024 574.135 287.285 613.775 287.285C635.991 287.285 654 282.942 654 277.583C654 272.226 635.991 267.882 613.775 267.882C574.135 267.882 542 278.206 542 290.941C542 303.676 574.135 314 613.775 314" stroke="#A1A6B4" stroke-linecap="round"/>
</g>
<defs>
<clipPath id="clip0_100501_3437">
<rect width="768" height="400" fill="white"/>
</clipPath>
</defs>
</svg>
